
<svg version="1.1" id="svg9" xml:space="preserve" width="1000.227" height="374.04099" viewBox="0 0 1000.227 374.04097" xmlns:xlink="http://www.w3.org/1999/xlink" xmlns="http://www.w3.org/2000/svg"><defs id="defs13"><linearGradient id="linearGradient272523"><stop style="stop-color:#f2d2a6;stop-opacity:1" offset="0" id="stop272517"></stop><stop style="stop-color:#efbb6f;stop-opacity:1" offset="0.56393492" id="stop272519"></stop><stop style="stop-color:#dda65a;stop-opacity:1" offset="1" id="stop272521"></stop></linearGradient><linearGradient id="linearGradient203957"><stop style="stop-color:#dca559;stop-opacity:1" offset="0" id="stop203953"></stop><stop style="stop-color:#f4c37f;stop-opacity:1" offset="1" id="stop203955"></stop></linearGradient><linearGradient id="linearGradient25323"><stop style="stop-color:#f2d2a6;stop-opacity:1" offset="0" id="stop25319"></stop><stop style="stop-color:#efbb6f;stop-opacity:1" offset="0.56393492" id="stop55251"></stop><stop style="stop-color:#e9b35b;stop-opacity:1" offset="1" id="stop25321"></stop></linearGradient><clipPath clipPathUnits="userSpaceOnUse" id="clipPath23"><path d="M 0,935 H 2500 V 0 H 0 Z" id="path21"></path></clipPath><clipPath clipPathUnits="userSpaceOnUse" id="clipPath39"><path d="M 1232.098,930.718 C 1139,911.741 1068.25,830.631 1061.734,736.001 v 0 c -1.357,-19.706 -1.765,-43.254 4.665,-62.242 v 0 H 952.428 v -95.046 h -0.421 c -1.485,4.058 -4.483,7.776 -6.868,11.355 v 0 c -5.53,8.292 -11.657,16.12 -18.294,23.551 v 0 c -27.933,31.283 -64.493,54.032 -105.211,64.501 v 0 c -21.125,5.432 -43.801,8.029 -65.607,6.536 v 0 c -13.394,-0.917 -26.285,-4.359 -39.532,-5.777 v 0 c -7.541,-0.807 -15.544,-0.074 -23.13,-0.074 v 0 H 421.263 V 521.938 h -0.42 c -2.916,21.658 -14.933,44.387 -26.317,62.663 v 0 C 343.305,666.833 239.71,703.788 147.901,674.456 v 0 C 83.535,653.891 32.653,602.405 10.832,538.76 v 0 C 3.923,518.609 0.711,497.525 0,476.338 v 0 -18.087 C 3.632,366.122 73.789,283.564 163.041,262.403 v 0 c 88.387,-20.952 181.534,16.427 230.757,92.993 v 0 c 8.411,13.085 15.054,27.084 20.494,41.636 v 0 c 2.588,6.922 5.561,14.522 6.551,21.869 v 0 h 0.42 v -158.13 h 111.448 v 314.157 h 47.944 c -13.269,-25.219 -22.732,-52.253 -25.583,-80.747 v 0 c -7.393,-73.888 22.66,-147.489 81.938,-193.183 v 0 c 62.57,-48.23 148.616,-57.907 220.371,-24.956 v 0 c 20.557,9.442 39.391,22.294 55.934,37.682 v 0 c 14.476,13.461 30.209,30.259 38.692,48.402 v 0 h 0.421 V 260.771 h 113.971 v 410.885 h 0.42 c 10.305,-49.917 42.275,-94.626 82.85,-124.533 v 0 c 11.709,-8.63 24.574,-15.966 37.851,-21.879 v 0 c 4.143,-1.845 8.365,-3.55 12.616,-5.122 v 0 c 1.523,-0.563 4.118,-1.043 5.035,-2.507 v 0 c 1.648,-2.63 0.433,-9.021 0.433,-12.079 v 0 -31.962 -118.598 h -84.953 v -98.41 h 380.605 116.494 c 28.186,0 56.41,-1.313 84.112,4.802 v 0 c 58.949,13.02 111.447,51.473 140.597,104.543 v 0 c 6.127,11.161 11.535,22.811 15.568,34.907 v 0 c 1.528,4.567 3.646,9.474 4.068,14.298 v 0 h 0.42 V 260.771 h 111.448 v 314.157 h 51.308 c -3.562,-5.001 -6.023,-11.237 -8.542,-16.823 v 0 c -7.355,-16.316 -12.541,-33.653 -15.464,-51.307 v 0 c -13.673,-82.547 21.883,-167.933 92.136,-214.484 v 0 c 73.594,-48.761 174.032,-47.76 245.186,5.521 v 0 c 16.683,12.491 31.684,26.983 44.212,43.683 v 0 c 4.601,6.132 9.935,12.689 12.984,19.766 v 0 h 0.42 V 260.771 H 2500 v 418.034 h -103.797 v -98.831 h -0.42 c -6.317,13.511 -17.365,25.642 -27.266,36.59 v 0 c -37.232,41.168 -89.785,64.327 -144.743,68.092 v 0 c -14.588,0.999 -29.729,-0.054 -44.159,-2.18 v 0 c -6.594,-0.971 -13.553,-3.589 -20.187,-3.668 v 0 c -98.94,-1.184 -197.964,-0.003 -296.913,-0.003 v 0 -152.662 h -0.42 c -0.522,5.958 -3.361,12.059 -5.325,17.664 v 0 c -5.723,16.334 -13.824,31.874 -23.412,46.261 v 0 c -46.923,70.381 -133.995,106.532 -216.87,91.003 v 0 c -79.337,-14.864 -144.276,-74.928 -166.359,-152.405 v 0 c -7.235,-25.376 -8.865,-51.623 -6.948,-77.803 v 0 c 1.867,-25.461 9.135,-51.199 20.539,-74.019 v 0 c 3.702,-7.397 7.264,-15.265 12.302,-21.869 v 0 h -161.494 l 1.262,155.608 v 95.046 c -19.452,0 -39.622,-1.546 -58.878,1.44 v 0 c -31.399,4.87 -60.047,23.46 -77.656,49.868 v 0 c -37.035,55.556 -17.983,132.788 40.647,164.987 v 0 c 11.128,6.112 23.21,10.378 35.747,12.455 v 0 c 13.875,2.298 27.819,2.186 41.635,-0.577 v 0 c 58.004,-11.599 99.281,-68.542 91.564,-127.239 v 0 c -1.703,-12.941 -5.378,-25.786 -11.346,-37.43 v 0 c -1.994,-3.893 -4.252,-7.699 -6.654,-11.355 v 0 c -0.824,-1.253 -2.674,-2.996 -2.481,-4.626 v 0 c 0.236,-1.95 2.859,-3.503 4.198,-4.696 v 0 l 12.616,-11.216 c 13.135,-11.728 26.398,-23.317 39.532,-35.046 v 0 l 10.934,-9.672 c 2.032,-1.816 4.051,-4.227 6.73,-4.977 v 0 c 7.436,11.94 16.095,22.72 22.601,35.327 v 0 c 13.428,26.019 20.132,53.897 22.89,82.849 v 0 c 3.158,33.153 -3.246,68.248 -16.297,98.831 v 0 c -33.927,79.51 -113.554,130.359 -197.832,130.363 v 0 c -13.819,0 -27.753,-1.366 -41.642,-4.197 m 399.11,-572.748 c -15.102,3.423 -29.427,9.61 -42.056,18.636 v 0 c -44.592,31.864 -60.534,92.695 -37.719,142.388 v 0 c 13.903,30.285 40.835,52.888 72.626,62.359 v 0 c 9.004,2.684 18.093,3.3 27.336,4.389 v 0 c 10.611,1.252 22.534,-0.939 32.803,-3.508 v 0 c 52.167,-13.045 90.294,-63.91 86.597,-117.912 v 0 c -3.839,-56.061 -46.569,-101.751 -102.578,-108.383 v 0 c -4.056,-0.48 -8.193,-0.716 -12.349,-0.716 v 0 c -8.31,0 -16.695,0.942 -24.66,2.747 M 190.797,357.584 c -70.895,14.097 -112.493,94.205 -82.299,160.148 v 0 c 13.807,30.156 39.66,53.221 71.365,63.073 v 0 c 9.721,3.021 19.436,3.757 29.439,4.937 v 0 c 9.123,1.077 19.242,-0.7 28.177,-2.487 v 0 c 55.801,-11.162 94.647,-64.906 90.804,-121.037 v 0 c -3.79,-55.336 -48.01,-99.819 -102.579,-106.279 v 0 c -3.916,-0.464 -7.885,-0.684 -11.864,-0.684 v 0 c -7.744,0 -15.527,0.834 -23.043,2.329 m 1993.024,1.232 c -13.176,3.305 -25.831,9.059 -37.009,16.78 v 0 c -50.038,34.548 -64.434,105.75 -31.412,156.856 v 0 c 6.641,10.28 14.67,19.682 24.263,27.334 v 0 c 19.202,15.317 40.668,22.692 64.765,25.536 v 0 c 65.2,7.692 125.595,-53.089 122.787,-117.216 v 0 c -2.532,-57.789 -45.219,-105.303 -103.02,-112.167 v 0 c -3.963,-0.471 -7.982,-0.698 -12.013,-0.698 v 0 c -9.561,0 -19.197,1.274 -28.361,3.575 m -1444.616,0.101 c -13.168,3.293 -25.915,8.996 -37.009,16.843 v 0 c -14.555,10.3 -27.378,23.829 -35.613,39.777 v 0 c -25.961,50.278 -13.046,113.702 33.09,147.664 v 0 c 18.02,13.268 38.187,19.53 60.139,22.121 v 0 c 13.088,1.544 27.387,-0.743 39.953,-4.33 v 0 c 13.118,-3.742 25.667,-10.054 36.589,-18.216 v 0 c 11.733,-8.769 21.485,-19.101 29.258,-31.586 v 0 c 32.593,-52.347 16.422,-123.059 -34.726,-157.006 v 0 c -15.262,-10.132 -32.743,-16.095 -50.887,-18.245 v 0 c -3.948,-0.469 -7.935,-0.692 -11.927,-0.692 v 0 c -9.727,-0.001 -19.493,1.327 -28.867,3.67 m 526.538,-172.341 c -20.418,-2.683 -39.069,-8.932 -54.672,-23.025 v 0 c -43.254,-39.069 -38.868,-109.972 8.832,-143.457 v 0 c 8.987,-6.308 19.223,-10.837 29.859,-13.495 v 0 c 10.662,-2.666 21.881,-3.554 32.804,-2.246 v 0 c 43.922,5.253 79.203,41.984 81.151,86.513 v 0 c 1.905,43.57 -27.538,82.749 -69.796,93.309 v 0 c -6.609,1.654 -13.968,2.842 -21.066,2.842 v 0 c -2.414,0 -4.797,-0.138 -7.112,-0.441 m -8.831,-145.934 c -38.254,10.793 -53.979,58.48 -29.351,89.756 v 0 c 4.058,5.152 9.034,9.686 14.632,13.118 v 0 c 7.334,4.495 15.442,7.191 23.971,8.209 v 0 c 6.855,0.82 14.378,0.147 21.028,-1.627 v 0 c 6.501,-1.734 12.596,-4.728 18.084,-8.593 v 0 c 32.731,-23.042 30.423,-73.223 -2.944,-94.357 v 0 c -7.423,-4.7 -15.708,-7.283 -24.392,-8.309 v 0 c -1.88,-0.224 -3.802,-0.331 -5.736,-0.331 v 0 c -5.172,0 -10.441,0.767 -15.292,2.134 m 487.426,146.111 v -34.486 h 15.14 V 31.146 h -15.14 V 0.025 h 52.57 v 31.121 h -9.252 v 121.121 h 9.252 v 34.486 z m -996.721,0 v -34.486 h 9.672 V 31.146 c -1.986,0 -7.919,0.997 -9.24,-0.672 v 0 c -0.929,-1.169 -0.432,-3.815 -0.432,-5.216 v 0 -14.298 c 0,-1.459 -0.636,-4.841 0.975,-5.636 v 0 c 3.785,-1.864 12.036,-0.252 16.267,-0.252 v 0 h 40.374 v 26.074 h -15.14 v 121.121 h 15.14 v 34.486 z m 799.059,-75.465 c -3.584,-0.559 -7.128,-1.808 -10.093,-3.931 v 0 c -18.795,-13.458 -6.788,-44.739 16.401,-41.119 v 0 c 3.583,0.56 7.129,1.809 10.094,3.932 v 0 c 17.631,12.625 7.825,41.4 -12.797,41.403 v 0 c -1.169,0 -2.369,-0.092 -3.605,-0.285 m -553.875,0 c -3.44,-0.538 -6.763,-1.707 -9.673,-3.642 v 0 C 963.434,94.533 975.958,62.907 999.11,66.234 v 0 c 3.309,0.475 6.404,1.611 9.253,3.381 v 0 c 19.064,11.837 8.907,41.948 -12.027,41.952 v 0 c -1.148,0 -2.325,-0.09 -3.535,-0.279" id="path37"></path></clipPath><linearGradient x1="0" y1="0" x2="1" y2="0" gradientUnits="userSpaceOnUse" gradientTransform="matrix(531.64032,-633.58423,-633.58423,-531.64032,1015.9791,907.70886)" spreadMethod="pad" id="linearGradient65"><stop style="stop-opacity:1;stop-color:#fed1bc" offset="0" id="stop55"></stop><stop style="stop-opacity:1;stop-color:#fed1bc" offset="0.25" id="stop57"></stop><stop style="stop-opacity:1;stop-color:#fd889a" offset="0.69273703" id="stop59"></stop><stop style="stop-opacity:1;stop-color:#fd889a" offset="0.960894" id="stop61"></stop><stop style="stop-opacity:1;stop-color:#fd889a" offset="1" id="stop63"></stop></linearGradient><clipPath clipPathUnits="userSpaceOnUse" id="clipPath75"><path d="M 1232.098,930.718 C 1139,911.741 1068.25,830.631 1061.734,736.001 v 0 c -1.357,-19.706 -1.765,-43.254 4.665,-62.242 v 0 H 952.428 v -95.046 h -0.421 c -1.485,4.058 -4.483,7.776 -6.868,11.355 v 0 c -5.53,8.292 -11.657,16.12 -18.294,23.551 v 0 c -27.933,31.283 -64.493,54.032 -105.211,64.501 v 0 c -21.125,5.432 -43.801,8.029 -65.607,6.536 v 0 c -13.394,-0.917 -26.285,-4.359 -39.532,-5.777 v 0 c -7.541,-0.807 -15.544,-0.074 -23.13,-0.074 v 0 H 421.263 V 521.938 h -0.42 c -2.916,21.658 -14.933,44.387 -26.317,62.663 v 0 C 343.305,666.833 239.71,703.788 147.901,674.456 v 0 C 83.535,653.891 32.653,602.405 10.832,538.76 v 0 C 3.923,518.609 0.711,497.525 0,476.338 v 0 -18.087 C 3.632,366.122 73.789,283.564 163.041,262.403 v 0 c 88.387,-20.952 181.534,16.427 230.757,92.993 v 0 c 8.411,13.085 15.054,27.084 20.494,41.636 v 0 c 2.588,6.922 5.561,14.522 6.551,21.869 v 0 h 0.42 v -158.13 h 111.448 v 314.157 h 47.944 c -13.269,-25.219 -22.732,-52.253 -25.583,-80.747 v 0 c -7.393,-73.888 22.66,-147.489 81.938,-193.183 v 0 c 62.57,-48.23 148.616,-57.907 220.371,-24.956 v 0 c 20.557,9.442 39.391,22.294 55.934,37.682 v 0 c 14.476,13.461 30.209,30.259 38.692,48.402 v 0 h 0.421 V 260.771 h 113.971 v 410.885 h 0.42 c 10.305,-49.917 42.275,-94.626 82.85,-124.533 v 0 c 11.709,-8.63 24.574,-15.966 37.851,-21.879 v 0 c 4.143,-1.845 8.365,-3.55 12.616,-5.122 v 0 c 1.523,-0.563 4.118,-1.043 5.035,-2.507 v 0 c 1.648,-2.63 0.433,-9.021 0.433,-12.079 v 0 -31.962 -118.598 h -84.953 v -98.41 h 380.605 116.494 c 28.186,0 56.41,-1.313 84.112,4.802 v 0 c 58.949,13.02 111.447,51.473 140.597,104.543 v 0 c 6.127,11.161 11.535,22.811 15.568,34.907 v 0 c 1.528,4.567 3.646,9.474 4.068,14.298 v 0 h 0.42 V 260.771 h 111.448 v 314.157 h 51.308 c -3.562,-5.001 -6.023,-11.237 -8.542,-16.823 v 0 c -7.355,-16.316 -12.541,-33.653 -15.464,-51.307 v 0 c -13.673,-82.547 21.883,-167.933 92.136,-214.484 v 0 c 73.594,-48.761 174.032,-47.76 245.186,5.521 v 0 c 16.683,12.491 31.684,26.983 44.212,43.683 v 0 c 4.601,6.132 9.935,12.689 12.984,19.766 v 0 h 0.42 V 260.771 H 2500 v 418.034 h -103.797 v -98.831 h -0.42 c -6.317,13.511 -17.365,25.642 -27.266,36.59 v 0 c -37.232,41.168 -89.785,64.327 -144.743,68.092 v 0 c -14.588,0.999 -29.729,-0.054 -44.159,-2.18 v 0 c -6.594,-0.971 -13.553,-3.589 -20.187,-3.668 v 0 c -98.94,-1.184 -197.964,-0.003 -296.913,-0.003 v 0 -152.662 h -0.42 c -0.522,5.958 -3.361,12.059 -5.325,17.664 v 0 c -5.723,16.334 -13.824,31.874 -23.412,46.261 v 0 c -46.923,70.381 -133.995,106.532 -216.87,91.003 v 0 c -79.337,-14.864 -144.276,-74.928 -166.359,-152.405 v 0 c -7.235,-25.376 -8.865,-51.623 -6.948,-77.803 v 0 c 1.867,-25.461 9.135,-51.199 20.539,-74.019 v 0 c 3.702,-7.397 7.264,-15.265 12.302,-21.869 v 0 h -161.494 l 1.262,155.608 v 95.046 c -19.452,0 -39.622,-1.546 -58.878,1.44 v 0 c -31.399,4.87 -60.047,23.46 -77.656,49.868 v 0 c -37.035,55.556 -17.983,132.788 40.647,164.987 v 0 c 11.128,6.112 23.21,10.378 35.747,12.455 v 0 c 13.875,2.298 27.819,2.186 41.635,-0.577 v 0 c 58.004,-11.599 99.281,-68.542 91.564,-127.239 v 0 c -1.703,-12.941 -5.378,-25.786 -11.346,-37.43 v 0 c -1.994,-3.893 -4.252,-7.699 -6.654,-11.355 v 0 c -0.824,-1.253 -2.674,-2.996 -2.481,-4.626 v 0 c 0.236,-1.95 2.859,-3.503 4.198,-4.696 v 0 l 12.616,-11.216 c 13.135,-11.728 26.398,-23.317 39.532,-35.046 v 0 l 10.934,-9.672 c 2.032,-1.816 4.051,-4.227 6.73,-4.977 v 0 c 7.436,11.94 16.095,22.72 22.601,35.327 v 0 c 13.428,26.019 20.132,53.897 22.89,82.849 v 0 c 3.158,33.153 -3.246,68.248 -16.297,98.831 v 0 c -33.927,79.51 -113.554,130.359 -197.832,130.363 v 0 c -13.819,0 -27.753,-1.366 -41.642,-4.197 m 399.11,-572.748 c -15.102,3.423 -29.427,9.61 -42.056,18.636 v 0 c -44.592,31.864 -60.534,92.695 -37.719,142.388 v 0 c 13.903,30.285 40.835,52.888 72.626,62.359 v 0 c 9.004,2.684 18.093,3.3 27.336,4.389 v 0 c 10.611,1.252 22.534,-0.939 32.803,-3.508 v 0 c 52.167,-13.045 90.294,-63.91 86.597,-117.912 v 0 c -3.839,-56.061 -46.569,-101.751 -102.578,-108.383 v 0 c -4.056,-0.48 -8.193,-0.716 -12.349,-0.716 v 0 c -8.31,0 -16.695,0.942 -24.66,2.747 M 190.797,357.584 c -70.895,14.097 -112.493,94.205 -82.299,160.148 v 0 c 13.807,30.156 39.66,53.221 71.365,63.073 v 0 c 9.721,3.021 19.436,3.757 29.439,4.937 v 0 c 9.123,1.077 19.242,-0.7 28.177,-2.487 v 0 c 55.801,-11.162 94.647,-64.906 90.804,-121.037 v 0 c -3.79,-55.336 -48.01,-99.819 -102.579,-106.279 v 0 c -3.916,-0.464 -7.885,-0.684 -11.864,-0.684 v 0 c -7.744,0 -15.527,0.834 -23.043,2.329 m 1993.024,1.232 c -13.176,3.305 -25.831,9.059 -37.009,16.78 v 0 c -50.038,34.548 -64.434,105.75 -31.412,156.856 v 0 c 6.641,10.28 14.67,19.682 24.263,27.334 v 0 c 19.202,15.317 40.668,22.692 64.765,25.536 v 0 c 65.2,7.692 125.595,-53.089 122.787,-117.216 v 0 c -2.532,-57.789 -45.219,-105.303 -103.02,-112.167 v 0 c -3.963,-0.471 -7.982,-0.698 -12.013,-0.698 v 0 c -9.561,0 -19.197,1.274 -28.361,3.575 m -1444.616,0.101 c -13.168,3.293 -25.915,8.996 -37.009,16.843 v 0 c -14.555,10.3 -27.378,23.829 -35.613,39.777 v 0 c -25.961,50.278 -13.046,113.702 33.09,147.664 v 0 c 18.02,13.268 38.187,19.53 60.139,22.121 v 0 c 13.088,1.544 27.387,-0.743 39.953,-4.33 v 0 c 13.118,-3.742 25.667,-10.054 36.589,-18.216 v 0 c 11.733,-8.769 21.485,-19.101 29.258,-31.586 v 0 c 32.593,-52.347 16.422,-123.059 -34.726,-157.006 v 0 c -15.262,-10.132 -32.743,-16.095 -50.887,-18.245 v 0 c -3.948,-0.469 -7.935,-0.692 -11.927,-0.692 v 0 c -9.727,-0.001 -19.493,1.327 -28.867,3.67 m 526.538,-172.341 c -20.418,-2.683 -39.069,-8.932 -54.672,-23.025 v 0 c -43.254,-39.069 -38.868,-109.972 8.832,-143.457 v 0 c 8.987,-6.308 19.223,-10.837 29.859,-13.495 v 0 c 10.662,-2.666 21.881,-3.554 32.804,-2.246 v 0 c 43.922,5.253 79.203,41.984 81.151,86.513 v 0 c 1.905,43.57 -27.538,82.749 -69.796,93.309 v 0 c -6.609,1.654 -13.968,2.842 -21.066,2.842 v 0 c -2.414,0 -4.797,-0.138 -7.112,-0.441 m -8.831,-145.934 c -38.254,10.793 -53.979,58.48 -29.351,89.756 v 0 c 4.058,5.152 9.034,9.686 14.632,13.118 v 0 c 7.334,4.495 15.442,7.191 23.971,8.209 v 0 c 6.855,0.82 14.378,0.147 21.028,-1.627 v 0 c 6.501,-1.734 12.596,-4.728 18.084,-8.593 v 0 c 32.731,-23.042 30.423,-73.223 -2.944,-94.357 v 0 c -7.423,-4.7 -15.708,-7.283 -24.392,-8.309 v 0 c -1.88,-0.224 -3.802,-0.331 -5.736,-0.331 v 0 c -5.172,0 -10.441,0.767 -15.292,2.134 m 487.426,146.111 v -34.486 h 15.14 V 31.146 h -15.14 V 0.025 h 52.57 v 31.121 h -9.252 v 121.121 h 9.252 v 34.486 z m -996.721,0 v -34.486 h 9.672 V 31.146 c -1.986,0 -7.919,0.997 -9.24,-0.672 v 0 c -0.929,-1.169 -0.432,-3.815 -0.432,-5.216 v 0 -14.298 c 0,-1.459 -0.636,-4.841 0.975,-5.636 v 0 c 3.785,-1.864 12.036,-0.252 16.267,-0.252 v 0 h 40.374 v 26.074 h -15.14 v 121.121 h 15.14 v 34.486 z m 799.059,-75.465 c -3.584,-0.559 -7.128,-1.808 -10.093,-3.931 v 0 c -18.795,-13.458 -6.788,-44.739 16.401,-41.119 v 0 c 3.583,0.56 7.129,1.809 10.094,3.932 v 0 c 17.631,12.625 7.825,41.4 -12.797,41.403 v 0 c -1.169,0 -2.369,-0.092 -3.605,-0.285 m -553.875,0 c -3.44,-0.538 -6.763,-1.707 -9.673,-3.642 v 0 C 963.434,94.533 975.958,62.907 999.11,66.234 v 0 c 3.309,0.475 6.404,1.611 9.253,3.381 v 0 c 19.064,11.837 8.907,41.948 -12.027,41.952 v 0 c -1.148,0 -2.325,-0.09 -3.535,-0.279" id="path73"></path></clipPath><linearGradient xlink:href="#linearGradient272523" id="linearGradient67894" gradientUnits="userSpaceOnUse" x1="1074.5583" y1="919.00873" x2="1496.21" y2="256.56601"></linearGradient><linearGradient xlink:href="#linearGradient25323" id="linearGradient67896" gradientUnits="userSpaceOnUse" x1="1074.5583" y1="919.00873" x2="1496.21" y2="256.56601"></linearGradient><linearGradient xlink:href="#linearGradient25323" id="linearGradient67898" gradientUnits="userSpaceOnUse" x1="1074.5583" y1="919.00873" x2="1496.21" y2="256.56601"></linearGradient><linearGradient xlink:href="#linearGradient25323" id="linearGradient67900" gradientUnits="userSpaceOnUse" x1="1074.5583" y1="919.00873" x2="1496.21" y2="256.56601"></linearGradient><linearGradient xlink:href="#linearGradient87264" id="linearGradient87266" x1="48223.523" y1="7674.4922" x2="52277.004" y2="1111.7174" gradientUnits="userSpaceOnUse" gradientTransform="matrix(0.02500052,0,0,0.02500052,-0.06570681,-0.87058602)"></linearGradient><linearGradient id="linearGradient87264"><stop style="stop-color:#edd0a5;stop-opacity:1" offset="0" id="stop87260"></stop><stop style="stop-color:#dca559;stop-opacity:1" offset="1" id="stop87262"></stop></linearGradient><linearGradient xlink:href="#linearGradient119294" id="linearGradient119296" x1="31019.693" y1="7213.1611" x2="31334.031" y2="243.11497" gradientUnits="userSpaceOnUse" gradientTransform="matrix(0.02500052,0,0,0.02500052,-0.06570681,-0.87058602)"></linearGradient><linearGradient id="linearGradient119294"><stop style="stop-color:#f4ca92;stop-opacity:1" offset="0" id="stop119290"></stop><stop style="stop-color:#e4a959;stop-opacity:1" offset="1" id="stop119292"></stop></linearGradient><linearGradient xlink:href="#linearGradient142990" id="linearGradient142992" x1="70839.359" y1="7384.958" x2="71043.57" y2="32.170464" gradientUnits="userSpaceOnUse" gradientTransform="matrix(0.02500052,0,0,0.02500052,-0.06570681,-0.87058602)"></linearGradient><linearGradient id="linearGradient142990"><stop style="stop-color:#e7c590;stop-opacity:1" offset="0" id="stop142986"></stop><stop style="stop-color:#dbab65;stop-opacity:1" offset="1" id="stop142988"></stop></linearGradient><linearGradient xlink:href="#linearGradient203957" id="linearGradient203959" x1="502.10049" y1="270.67157" x2="502.87894" y2="131.16821" gradientUnits="userSpaceOnUse"></linearGradient></defs><g id="g15" transform="matrix(0.4000908,0,0,-0.40009092,0,374.05101)"><g id="g19" clip-path="url(#clipPath23)"><g id="g25" transform="translate(580.6304,574.9355)"><path d="M 0,0 C 0.068,0.012 0.124,0.041 0.199,0.041 1.505,0.041 1.631,-1.761 0.6,-2.142 0.479,-2.193 0.348,-2.232 0.192,-2.237 0.173,-2.481 0.09,-2.72 -0.072,-2.905 0.055,-2.964 0.185,-3.009 0.309,-3.081 0.643,-3.339 0.977,-3.597 1.31,-3.855 1.678,-4.196 1.937,-4.601 2.14,-5.038 L 162.149,108.164 C 58.738,88.75 13.881,24.933 0,0" style="fill:#fd8799;fill-opacity:1;fill-rule:nonzero;stroke:none" id="path27"></path></g><g id="g29" transform="translate(580.6548,574.9282)"><path d="M 0,0 C 0,0 14.879,47.229 135.84,103.951" style="fill:#fd8799;fill-opacity:1;fill-rule:nonzero;stroke:none" id="path31"></path></g></g><g id="g33"><g id="g35" clip-path="url(#clipPath39)"><path id="path41" style="fill:url(#linearGradient203959);fill-opacity:1;fill-rule:nonzero;stroke:none;stroke-width:0.400091" transform="matrix(2.4994326,0,0,-2.4994319,0,934.91502)" d="m -0.0625,0 v 374.05078 c 98.527424,-52.40399 196.14707,-73.85663 293.5,-78.22461 1.05182,-0.60408 2.13827,-1.15084 3.25586,-1.62109 0.67629,-0.28457 1.4062,-0.42363 2.12305,-0.58008 3.38609,-0.73905 2.95021,-0.61407 5.93945,-0.79883 1.31698,0.0239 2.63626,-0.005 3.95117,0.0723 1.74354,0.10278 6.96368,0.93954 7.95703,1.11328 1.67955,0.29374 3.29275,0.63978 4.9043,1.00976 57.75433,-15.50813 118.5946,43.50417 117.29493,-18.0957 -0.30052,-4.65723 -0.81861,-9.31475 -0.7168,-13.98633 -0.35252,-3.15629 -0.48321,-3.57585 -0.4121,-7.15234 0.0488,-2.45681 0.61544,-6.27974 0.98437,-8.46484 0.47615,-2.82013 1.58649,-5.5187 1.62109,-8.42579 0.29143,-2.12543 0.54753,-4.25677 0.875,-6.37695 0.20699,-1.34019 -0.61628,-3.82737 0.72852,-4.00195 0.006,-7.3e-4 0.01,-7.5e-4 0.0156,-0.002 -0.0287,-3.58146 0.76748,-5.65426 2.58594,-6.68164 0.0587,-0.72895 0.10428,-1.45931 0.18946,-2.18554 0.0481,-0.41 0.18639,-0.80721 0.21874,-1.21875 0.16981,-2.1568 -1.70305,-5.91863 0.38672,-6.47852 59.12056,-11.33906 -49.06638,-154.833308 -16.73232,-110.61343 0.96366,-0.12365 1.09819,-0.15632 0.46289,0.50391 0.3574,0.54732 0.0881,0.99824 -1.45312,1.24804 -1.81648,0.29442 -0.95142,0.27336 -2.68946,-1.64648 -0.2986,-0.0203 -0.61195,-0.0496 -0.9414,-0.0859 C 354.90032,-41.680367 461.42993,0 -0.0625,0 Z m 429.13281,101.8418 c -0.10475,-0.16042 -0.26625,-0.32924 -0.46289,-0.50391 -0.47012,0.0603 -1.10185,0.13288 -1.98437,0.14844 0.67196,0.26615 1.34486,0.5291 2.01172,0.80664 0.18345,-0.19128 0.31017,-0.32088 0.43554,-0.45117 z m 162.86733,103.28515 c 0.85639,1.59286 1.11256,2.43659 0.15625,1.76367 0.002,0.0248 0.002,0.0439 0.004,0.0684 0.0333,0.13812 0.0806,0.27299 0.10937,0.41211 0.17217,0.83166 0.0753,1.69759 0.0703,2.54688 -0.0116,1.82176 -0.31115,3.62794 -0.41601,5.44336 -0.16763,1.85393 -0.36358,3.70169 -0.74805,5.52539 0.40453,3.25319 0.82702,6.60971 1.18164,9.76367 0.39818,0.49121 0.38575,1.26013 0.23633,2.13477 0.35113,3.16358 0.69549,6.27637 1.07227,9.69531 0.36789,6.42491 1.18028,17.06272 1.02734,24.18164 C 496.88928,403.75468 909.35979,373.314 1000.26,374.05082 V 0 C 545.82564,-34.531718 559.59342,40.045831 591.93764,205.12695 Z m 0.16002,1.83203 c -0.007,-0.0275 -0.0147,-0.0546 -0.0215,-0.082 -10e-4,-8e-4 -0.003,-7.5e-4 -0.004,-0.002 -0.0714,0.36956 -0.26673,0.46712 -0.64454,0.0723 -1.11885,-1.16979 -1.98967,-2.53533 -2.91015,-3.86133 -0.0239,0.25443 -0.0437,0.50379 -0.0137,0.69922 0.16584,1.07882 0.35289,2.1541 0.5332,3.23046 2.106,3.03947 3.35037,4.34444 3.06055,-0.0566 z"></path></g><g id="layer3"><path d="m 1267.2114,185.95828 c -2.7251,-0.29993 -9.6502,-1.475 -13.1253,-2.19984 -13.9253,-2.97532 -25.6005,-7.92519 -35.8007,-15.17555 -7.6002,-5.4001 -15.8754,-13.92516 -21.3005,-21.95034 -8.7002,-12.85041 -13.8003,-27.02552 -15.4003,-42.75095 -0.525,-5.075179 -0.4,-16.425259 0.2249,-21.000559 2.9001,-21.075207 11.7753,-39.325726 26.0756,-53.626142 14.3003,-14.300082 32.0257,-22.850472 53.3261,-25.75048 4.0501,-0.549875 13.8503,-0.774823 18.3004,-0.399909 15.7504,1.325032 31.5507,7.075059 44.676,16.200318 9.2502,6.4502 18.2004,15.575459 24.3755,24.800696 8.2252,12.325198 13.2253,26.1004 14.7753,40.675757 0.5,4.59995 0.475,13.82519 0,18.500459 -1.85,17.65032 -8.6752,34.15057 -19.9754,48.35101 -3.2001,4.00009 -10.1503,10.95017 -14.1503,14.15011 -14.3003,11.40041 -31.3507,18.27552 -49.7261,20.10043 -2.425,0.22495 -10.3502,0.27494 -12.2752,0.075 z m 10.4002,-35.10069 c 10.6003,-1.0251 20.3755,-4.85023 28.9757,-11.3001 12.2502,-9.17525 20.0254,-23.12574 21.6504,-38.90082 0.175,-1.750269 0.25,-4.700269 0.15,-7.625269 -0.3,-10.37531 -2.8501,-19.225295 -8.1252,-28.275571 -4.1501,-7.125047 -11.3002,-14.325411 -18.8004,-18.950359 -8.2752,-5.100174 -18.9754,-8.025176 -29.3756,-8.025176 -14.6753,0 -27.9256,5.300128 -38.5008,15.400166 -9.2252,8.800333 -15.3004,20.750616 -17.3004,33.95095 -0.6,3.9501 -0.6,12.05026 0,16.000359 1.85,12.22522 7.1251,22.70018 15.8003,31.37554 5.8752,5.87499 12.4003,10.07504 20.2505,13.00037 4.1501,1.54999 10.8502,3.07497 15.2503,3.44989 2.325,0.19995 7.4751,0.14996 10.0252,-0.1 z" id="path86638" style="fill:url(#linearGradient87266);fill-opacity:1;stroke-width:0.333257"></path><path d="m 747.45027,168.63288 v -17.25041 h 4.87512 4.8751 V 90.856231 30.329988 l -2.87505,0.174961 c -3.77511,0.225282 -5.27514,0.02666 -6.17513,-0.874802 l -0.70004,-0.700174 V 17.379932 c 0,-13.375293 -0.1,-12.725441 2.20006,-13.425282 1.67502,-0.500219 6.67512,-0.550208 11.17523,-0.09998 1.75004,0.17496 10.32523,0.274938 23.57552,0.274938 h 20.80044 v 13.125349 13.125017 h -7.50016 -7.50016 v 60.501247 60.501249 h 7.50016 7.50016 v 17.25041 17.25041 h -28.87561 -28.87564 z" id="path86640" style="fill:url(#linearGradient119296);fill-opacity:1;stroke-width:0.333257"></path><path d="m 1744.2216,168.63288 v -17.25041 h 7.6252 7.6251 V 90.881221 30.379977 l -7.5501,-0.04999 -7.5752,-0.07498 -0.075,-15.550132 -0.05,-15.57545902 h 26.3756 26.3756 l -0.05,15.57545902 -0.075,15.550132 -4.5501,0.07498 -4.5751,0.04999 v 60.501244 60.501249 h 4.6251 4.6251 v 17.25041 17.25041 h -26.3755 -26.3756 z" id="path86642" style="fill:url(#linearGradient142992);fill-opacity:1;stroke-width:0.333257"></path><path d="m 991.45548,110.23182 c -5.0251,-1.10008 -8.9502,-3.27525 -12.4003,-6.92509 -5.1501,-5.400099 -6.9501,-12.800419 -5.0001,-20.500669 2.0251,-7.9252 7.7252,-14.250095 15.1504,-16.725199 2.275,-0.775157 2.55,-0.800152 6.3751,-0.825146 3.4251,0 4.3001,0.07498 6.10012,0.575203 6.4752,1.774929 11.8753,5.999969 14.6254,11.475058 1.75,3.47521 2.525,8.675364 1.925,12.850414 -1.475,9.900079 -8.2502,17.850269 -17.1004,19.975459 -2.45002,0.59986 -7.17512,0.64985 -9.67522,0.1 z" id="path86644" style="fill:#e7c089;fill-opacity:1;stroke-width:0.333257"></path><path d="m 1545.4924,110.25682 c -5.0001,-1.10008 -8.6002,-2.99999 -11.8503,-6.22525 -2.85,-2.85002 -4.5001,-5.750029 -5.7251,-10.075049 -0.775,-2.72504 -0.775,-8.30044 0,-11.12547 3.225,-11.799981 12.4503,-18.700413 23.6255,-17.675312 3.9001,0.374915 7.9752,1.724941 10.8502,3.65017 6.6002,4.375006 10.1502,11.500053 9.7502,19.525232 -0.5,10.55026 -7.5001,19.525559 -17.0003,21.800709 -2.4501,0.59986 -7.1752,0.64985 -9.6502,0.12497 z" id="path86646" style="fill:#e7c089;fill-opacity:1;stroke-width:0.333257"></path></g></g><g id="g45" style="fill:url(#linearGradient67900);fill-opacity:1"><g id="g51" style="fill:url(#linearGradient67898);fill-opacity:1"><g id="g53" style="fill:url(#linearGradient67896);fill-opacity:1"><path d="M 1232.098,930.718 C 1139,911.741 1068.25,830.631 1061.734,736.001 v 0 c -1.299,-18.868 -1.729,-41.257 3.881,-59.794 v 0 c 0.245,-0.607 0.442,-1.235 0.593,-1.876 v 0 c 0.304,-0.84691 0.4449,-1.86562 0.611,-2.675 10.305,-49.917 42.275,-94.626 82.85,-124.533 v 0 c 11.709,-8.63 24.574,-15.966 37.851,-21.879 v 0 c 4.143,-1.845 8.365,-3.55 12.616,-5.122 v 0 c 1.523,-0.563 4.118,-1.043 5.035,-2.507 v 0 c 1.648,-2.63 0.433,-9.021 0.433,-12.079 v 0 -31.962 -118.598 h -84.953 v -98.41 h 375.559 l 0.528,356.473 c -21.399,-23.951 -37.584,-52.709 -46.609,-84.373 v 0 c -7.235,-25.376 -8.865,-51.623 -6.948,-77.803 v 0 c 1.867,-25.461 9.135,-51.199 20.539,-74.019 v 0 c 3.702,-7.397 7.264,-15.265 12.302,-21.869 v 0 h -161.494 l 1.262,155.608 v 95.046 c -19.452,0 -39.622,-1.546 -58.878,1.44 v 0 c -31.399,4.87 -60.047,23.46 -77.656,49.868 v 0 c -37.035,55.556 -17.983,132.788 40.647,164.987 v 0 c 11.128,6.112 23.21,10.378 35.747,12.455 v 0 c 13.875,2.298 27.819,2.186 41.635,-0.577 v 0 c 58.004,-11.599 99.281,-68.542 91.564,-127.239 v 0 c -1.703,-12.941 -5.378,-25.786 -11.346,-37.43 v 0 c -1.994,-3.893 -4.252,-7.699 -6.654,-11.355 v 0 c -0.824,-1.253 -2.674,-2.996 -2.481,-4.626 v 0 c 0.236,-1.95 2.859,-3.503 4.198,-4.696 v 0 l 12.616,-11.216 c 13.135,-11.728 26.398,-23.317 39.532,-35.046 v 0 l 10.934,-9.672 c 2.032,-1.816 4.051,-4.227 6.73,-4.977 v 0 c 7.436,11.94 16.095,22.72 22.601,35.327 v 0 c 13.428,26.019 20.132,53.897 22.89,82.849 v 0 c 3.158,33.153 -3.246,68.248 -16.297,98.831 v 0 c -33.927,79.51 -113.554,130.359 -197.833,130.363 v 0 c -13.818,0 -27.752,-1.366 -41.641,-4.197" style="fill:url(#linearGradient67894);fill-opacity:1;stroke:none" id="path67"></path></g></g></g><g id="g71" clip-path="url(#clipPath75)" style="fill:#f4ce9d;fill-opacity:1"><g id="g77" transform="translate(385.1416,641.4326)" style="fill:#f4ce9d;fill-opacity:1"><path d="m 0,0 -351.406,-286.178 -167.348,205.492 351.406,286.178 z" style="fill:#f4ce9d;fill-opacity:1;fill-rule:nonzero;stroke:none" id="path79"></path></g><g id="g81" transform="translate(758.2373,835.5493)" style="fill:#f4ce9d;fill-opacity:1"><path d="m -182.82663,-270.39818 c -10.55896,-23.11417 -19.24207,-42.93031 -27.97037,-56.88282 -0.711,-18.123 -0.448,-36.265 1.461,-54.298 1.439,-6.096 1.36,-12.194 -0.279,-18.291 -0.822,-1.947 -1.643,-3.895 -2.465,-5.842 2.507,-5.245 4.499,-10.699 5.624,-16.375 2.472,-12.473 -0.245,-24.265 -7.405,-32.985 l 29.804,-36.597 351.405,286.177 C 3.2000532,-41.920635 -183.25991,-254.65316 -182.82663,-270.39818 Z" style="fill:#f4ce9d;fill-opacity:1;fill-rule:nonzero;stroke:none" id="path83"></path></g><g id="g85" transform="translate(1660.917,847.5044)" style="fill:#f4ce9d;fill-opacity:1"><path d="m 0,0 -153.123,-124.7 c 1.771,-11.949 -1.815,-24.865 -10.577,-33.114 -0.259,-0.244 -0.506,-0.492 -0.756,-0.74 -0.15,-0.246 -0.285,-0.502 -0.434,-0.75 0.354,-7.508 -1.663,-15.605 -5.177,-21.612 -0.717,-1.225 -1.491,-2.358 -2.299,-3.434 -0.822,-2.7 -1.954,-5.192 -3.453,-7.248 -2.753,-3.775 -5.227,-7.707 -7.514,-11.743 0.012,-10.162 -4.816,-19.483 -12.132,-26.193 -6.582,-16.583 -13.098,-33.296 -22.673,-48.344 -11.441,-17.983 -33.299,-23.626 -52.139,-13.672 -3.085,1.63 -5.827,3.771 -8.209,6.269 -3.969,-1.704 -8.184,-2.778 -12.858,-3.149 -1.279,-3.859 -2.519,-7.732 -3.833,-11.589 -4.32,-12.683 -9.375,-23.487 -17.489,-33.728 l 127.771,-158.782 352.244,287.037 z" style="fill:#f4ce9d;fill-opacity:1;fill-rule:nonzero;stroke:none" id="path87"></path></g><g id="g89" transform="translate(2209.4316,840.5156)" style="fill:#f4ce9d;fill-opacity:1"><path d="m -211.244,-333.313 c -2.074,-18.257 -4.954,-36.426 -6.387,-54.753 -1.015,-12.969 -2.902,-26.043 -2.084,-39.059 0.464,-2.106 1.028,-4.182 1.758,-6.246 2.103,-5.947 2.169,-11.951 0.743,-17.585 l 33.156,-40.713 351.406,286.177 c -194.416644,155.550593 -383.63689,-60.10559 -378.592,-127.821 z" style="fill:#f4ce9d;fill-opacity:1;fill-rule:nonzero;stroke:none" id="path91"></path></g><g id="g93" transform="translate(573.4478,717.7227)" style="fill:#f4ce9d;fill-opacity:1"><path d="M 7.207,-142.7945 1.165,-154.988 c 0.135,0.104 37.924,95.026 151.797,117.509 0.105,0.286 0.332,0.52 0.743,0.589 3.014,0.506 5.887,1.561 8.859,2.244 1.461,0.337 2.953,0.539 4.452,0.571 0.734,0.016 1.471,-0.016 2.204,0.032 0.738,0.049 1.383,0.366 2.108,0.481 0.467,0.074 0.834,-0.121 1.083,-0.41" style="fill:#f4ce9d;fill-opacity:1;fill-rule:nonzero;stroke:none" id="path95"></path></g><g id="g97" transform="translate(1939.7568,702.8931)" style="fill:#f4ce9d;fill-opacity:1"><path d="m 67.789,-143.492 10.92,2.623 c 0,0 0.423,0.997 1.298,2.792 -0.134,-0.014 -0.273,-0.011 -0.418,0.029 -0.555,0.152 -1.001,0.818 -0.791,1.392 0.615,1.677 1.668,3.058 2.645,4.531 0.529,0.798 1.013,1.623 1.654,2.34 0.293,0.327 0.615,0.633 0.935,0.933 0.365,0.345 0.694,0.666 1.182,0.831 0.086,0.028 0.174,0.04 0.262,0.043 15.474,26.285 59.292,85.387 149.597,106.638" style="fill:#f4ce9d;fill-opacity:1;fill-rule:nonzero;stroke:none" id="path99"></path></g></g></g></svg>
